<svg width="1586" height="440" viewBox="0 0 1586 440" fill="none" xmlns="http://www.w3.org/2000/svg">
<g clip-path="url(#clip0_8_126)">
<path d="M520.826 161.448H615.93V182.184H579.834V265H556.922V182.184H520.826V161.448ZM624.169 161.448H698.153V182.184H646.569V200.616L689.577 200.872V221.48L646.569 221.352V244.392H698.153V265H624.169V161.448ZM804.348 161.448L768.38 213.288L804.348 265H775.676L754.044 233.896L732.284 265H703.74L739.708 213.288L703.74 161.448H732.284L754.044 192.68L775.676 161.448H804.348ZM832.581 161.448V200.616H876.229V161.448H899.269V265H876.229V221.352H832.581V265H809.669V161.448H832.581ZM956.99 159.272C985.278 159.272 1006.4 179.24 1006.4 213.16C1006.4 248.616 983.998 266.92 956.99 266.92C929.982 266.92 907.71 248.488 907.71 213.16C907.71 178.6 929.982 159.272 956.99 159.272ZM956.99 245.544C972.478 245.544 983.998 235.432 983.998 213.16C983.998 191.016 972.35 180.776 956.99 180.776C941.758 180.776 929.982 191.016 929.982 213.16C929.982 235.432 941.63 245.544 956.99 245.544ZM1078.79 265L1070.73 243.624H1032.58L1024.52 265H1002.76L1040.78 161.448H1064.84L1100.55 265H1078.79ZM1039.75 224.552H1063.56L1051.66 193.064L1039.75 224.552ZM1127.02 163.368H1194.35V266.92H1171.69V184.104H1146.09C1146.09 184.104 1146.47 219.048 1142.25 237.48C1135.72 265.896 1131.75 266.92 1100.27 266.92V246.44C1115.88 246.44 1120.49 246.184 1123.18 230.056C1126.25 210.728 1126.38 173.48 1127.02 163.368ZM1249.3 203.176C1280.28 203.176 1290.52 217.256 1290.52 234.664C1290.52 261.544 1265.94 265 1244.18 265H1206.42V161.448H1229.33V203.176H1249.3ZM1268.88 234.28V231.464C1268.88 224.68 1262.23 219.176 1251.99 219.176H1229.72V246.568H1251.99C1262.23 246.568 1268.88 241.064 1268.88 234.28ZM1288.04 265L1312.36 225.448C1300.2 220.84 1292.4 208.168 1292.4 194.856C1292.4 177.704 1306.22 161.448 1328.75 161.448H1376.75V265H1353.71V227.752C1353.71 227.752 1351.15 227.752 1334.76 227.752L1314.28 265H1288.04ZM1326.96 207.656H1353.71V181.544H1326.96C1319.02 181.544 1312.49 186.792 1312.49 194.856C1312.49 202.792 1319.02 207.656 1326.96 207.656ZM1411.58 161.448V200.616H1455.23V161.448H1478.27V265H1455.23V221.352H1411.58V265H1388.67V161.448H1411.58ZM1561.33 223.272H1584.76C1580.79 252.2 1560.31 266.92 1535.99 266.92C1508.98 266.92 1486.71 248.488 1486.71 213.16C1486.71 178.6 1508.98 159.272 1535.99 159.272C1560.44 159.272 1579.38 174.248 1584.25 199.976H1560.31C1557.62 187.048 1547.89 180.776 1535.99 180.776C1520.76 180.776 1508.98 191.016 1508.98 213.16C1508.98 235.432 1520.63 245.544 1535.99 245.544C1548.92 245.544 1559.67 238.376 1561.33 223.272Z" fill="black"/>
<path fill-rule="evenodd" clip-rule="evenodd" d="M374.734 379.66L398.906 392.816L390.381 414.993L363.16 408.957C358.35 412.909 352.479 415.415 346.286 416.147L333.546 440.267L311.369 431.743L317.127 404.178C313.378 399.487 310.983 393.823 310.239 387.851L286.094 374.907L294.619 352.73L322.543 358.204C327.107 354.661 332.557 352.381 338.299 351.628L351.455 327.456L373.632 335.98L368.157 363.904C371.7 368.468 373.98 373.918 374.734 379.66ZM357.901 389.782C354.632 398.287 345.086 402.532 336.58 399.263C328.605 396.198 324.376 387.616 326.573 379.547C326.719 379.009 326.894 378.473 327.098 377.942C327.098 377.942 327.098 377.942 327.098 377.942C330.368 369.436 339.914 365.191 348.42 368.46C355.862 371.321 360.043 378.987 358.781 386.557C358.601 387.639 358.31 388.718 357.901 389.782Z" fill="black"/>
<path fill-rule="evenodd" clip-rule="evenodd" d="M139.606 275.825L152.362 296.554C149.859 301.047 147.863 305.86 146.449 310.917L118.5 318.227V339.495L146.449 346.806C147.887 351.95 149.928 356.841 152.491 361.401L137.461 386.823L152.5 401.861L158.014 398.61C158.796 395.201 159.568 391.39 160.276 387.103C164.099 363.968 166.221 325.876 155.764 264.181C155.182 261.461 154.559 258.766 153.897 256.096C152.021 261.719 149.01 267.062 144.449 271.672C142.936 273.201 141.318 274.583 139.606 275.825ZM204.516 421.361H221.768L228.699 392.84C233.726 391.413 238.51 389.41 242.976 386.906L268 401.861L283.039 386.823L268.433 361.535C271.067 356.874 273.155 351.864 274.61 346.592L302.5 338.861V317.593L274.491 310.704C273.034 305.559 270.973 300.667 268.39 296.111L282.778 270.861L267.74 255.823L242.924 270.788C238.447 268.283 233.65 266.28 228.61 264.857L221.5 236.361H217.325C216.551 237.519 215.728 238.644 214.857 239.736C209.008 247.068 201.364 252.29 194.944 256.146L194.483 257.871C195.482 268.48 196.428 279.122 197.362 289.62C197.635 292.687 197.907 295.741 198.179 298.778C201.978 297.22 206.139 296.361 210.5 296.361C228.449 296.361 243 310.912 243 328.861C243 346.811 228.449 361.361 210.5 361.361C208.108 361.361 205.777 361.103 203.532 360.613C204.883 378.496 206.122 395.043 205.743 407.805C205.611 412.277 205.282 416.899 204.516 421.361Z" fill="black"/>
<path d="M70 89.8613C70 89.8613 200 266.361 109.5 269.861C54.0879 272.004 20.5 246.861 13.0169 137.361C13.0169 41.3613 0 30.8613 0 30.8613C136.808 63.7328 200.001 145.015 209.5 196.861C215.274 228.373 196.344 238.001 180.693 247.076C179.35 247.855 178.597 249.348 178.748 250.893C181.643 280.672 184.163 312.486 187 339.861C190.5 393.861 197 434.361 176.5 434.361C176.5 434.361 170.5 434.907 167 428.861C162.368 420.861 192 387.861 170.5 261.361C148.5 157.861 70 89.8613 70 89.8613Z" fill="black"/>
<path fill-rule="evenodd" clip-rule="evenodd" d="M261.122 46.1905C261.122 46.1905 172.445 181.266 239.128 180.305C279.957 179.716 303.669 159.885 304.883 78.946C301.123 8.24222 310.283 0 310.283 0C231.747 23.3764 188.25 67.2511 171.04 103.653C183.789 116.27 194.225 129.237 202.437 142.032C221.983 83.9746 261.122 46.1905 261.122 46.1905Z" fill="black"/>
<path fill-rule="evenodd" clip-rule="evenodd" d="M275.223 188.151C284.12 184.029 292.184 177.803 298.929 168.666C299.062 168.486 299.194 168.305 299.325 168.124L302.397 170.13C307.95 167.49 314.073 165.854 320.531 165.456L331.501 139.86L354.861 145.988L351.677 174.074C356.715 177.546 361.079 181.928 364.53 186.982L392.501 183.364L398.874 206.658L373.025 217.993C372.61 224.631 370.888 230.914 368.111 236.588L385.488 258.695L368.501 275.86L346.272 258.887C340.484 261.871 334.033 263.746 327.198 264.234L316.501 289.86L293.142 283.732L296.237 256.102C290.759 252.458 286.049 247.751 282.401 242.276L254.873 245.655L248.5 222.361L274.267 211.04C274.765 204.523 276.524 198.359 279.302 192.792L275.223 188.151ZM323.622 239.361C337.153 239.361 348.122 228.392 348.122 214.861C348.122 201.33 337.153 190.361 323.622 190.361C310.091 190.361 299.122 201.33 299.122 214.861C299.122 227.547 308.763 237.98 321.117 239.235C321.941 239.319 322.776 239.361 323.622 239.361Z" fill="black"/>
</g>
<defs>
<clipPath id="clip0_8_126">
<rect width="1586" height="440" fill="white"/>
</clipPath>
</defs>
</svg>
